<mxfile host="app.diagrams.net" modified="2024-06-26T08:21:36.312Z" agent="Mozilla/5.0 (Windows NT 10.0; Win64; x64) AppleWebKit/537.36 (KHTML, like Gecko) Chrome/109.0.0.0 Safari/537.36" version="24.3.0" etag="wt4lqu9XgTfBSF0r7okX" type="github">
  <diagram name="第 1 页" id="FlRpXERLwcz8msCeHDeY">
    <mxGraphModel>
      <root>
        <mxCell id="0" />
        <mxCell id="1" parent="0" />
      </root>
    </mxGraphModel>
  </diagram>
</mxfile>
